<?xml version="1.0" encoding="UTF-8"?>
<svg id="Layer_1" data-name="Layer 1" xmlns="http://www.w3.org/2000/svg" viewBox="0 0 325 325">
  <defs>
    <style>
      .cls-1 {
        stroke: #fff;
      }

      .cls-1, .cls-2, .cls-3, .cls-4 {
        fill: none;
        stroke-linecap: round;
        stroke-linejoin: round;
      }

      .cls-5 {
        fill: #05203c;
      }

      .cls-6 {
        fill: #0162e1;
      }

      .cls-7 {
        fill: #e70866;
      }

      .cls-8 {
        fill: #fff;
      }

      .cls-9 {
        fill: #ffe9f9;
      }

      .cls-10 {
        fill: #fcf5cd;
      }

      .cls-11 {
        fill: #9fecfd;
      }

      .cls-12 {
        fill: #84c1fc;
      }

      .cls-13 {
        fill: #0fa1a9;
      }

      .cls-14 {
        fill: #11103b;
      }

      .cls-15 {
        fill: #5b9ff1;
      }

      .cls-16 {
        fill: #77184a;
      }

      .cls-2 {
        stroke: #96245c;
        stroke-width: 2px;
      }

      .cls-3 {
        stroke: #0d6b6b;
      }

      .cls-3, .cls-4 {
        stroke-width: .67px;
      }

      .cls-4 {
        stroke: #002f8c;
      }
    </style>
  </defs>
  <path class="cls-9" d="M318.49,162.06c0,35.91-12.14,69-32.55,95.35-9.17,11.87-20,22.36-32.17,31.14-4.68,3.4-9.57,6.53-14.63,9.39-4.38,2.48-8.89,4.75-13.52,6.79-19.3,8.57-40.66,13.31-63.13,13.31C76.35,318.04,6.51,248.19,6.51,162.05S76.34,6.06,162.49,6.06s156.01,69.85,156.01,156.01h0Z"/>
  <polyline class="cls-2" points="224.76 165.53 259.82 67.23 294.86 168.07"/>
  <polyline class="cls-2" points="26.7 119.96 61.75 21.65 97.84 125.49"/>
  <path class="cls-16" d="M168.83,240.89V44.22h-14.39V240.89c0,11.04-4.83,21.52-13.22,28.69l-10.82,9.25,31.24,12.44,31.24-12.44-10.82-9.25c-8.39-7.17-13.22-17.65-13.22-28.69h-.01Z"/>
  <path class="cls-7" d="M50.45,8.74c-.49,1.63-.93,4.06-.68,7.18,.24,3.17,1.07,5.54,1.79,7.07,.61,1.27,1.9,2.04,3.3,1.97,6.75-.33,29.53-.99,60.84,2.76,5.97,.72,11.55,3.35,15.93,7.48l21.63,20.45c1.82,1.73,4.03,2.9,6.39,3.46s4.86,.51,7.27-.21l28.52-8.5c5.77-1.72,11.93-1.55,17.59,.51,29.63,10.77,49.67,21.63,55.55,24.97,1.22,.69,2.72,.59,3.84-.27,1.34-1.04,3.15-2.78,4.79-5.5,1.63-2.68,2.33-5.05,2.63-6.72,.27-1.44-.42-2.89-1.68-3.61-9.19-5.27-50.06-27.5-108.77-41.49C110.69,4.31,64.19,5.72,53.61,6.28"/>
  <path class="cls-7" d="M229.69,294.9c.61-.76,1.39-1.97,1.94-3.71,.56-1.71,.63-3.13,.58-4.1-.04-.84-.62-1.56-1.42-1.79-5.84-1.72-31.62-8.7-66.28-8.7s-60.44,6.98-66.28,8.7c-.81,.24-1.38,.95-1.42,1.79-.05,.98,.02,2.39,.58,4.1,.56,1.74,1.33,2.95,1.94,3.71"/>
  <circle class="cls-16" cx="161.63" cy="41.14" r="8.03"/>
  <path class="cls-8" d="M126.14,10.16c53,7.11,105.65,22.57,152.01,49.6l-8.88-4.7c-2.49-1.37-6.35-3.27-8.99-4.47-14.79-7.23-30.9-13.54-46.47-18.88-28.53-9.5-57.93-16.93-87.66-21.55h0Z"/>
  <path class="cls-14" d="M44.7,152.03s3.61,.14,5.84-.71,3.42-5.37,3.42-5.89-5.75-1.53-5.75-1.53"/>
  <ellipse class="cls-5" cx="44.7" cy="144.26" rx="5.39" ry="7.77"/>
  <path class="cls-5" d="M91.29,152.17s3.53-.09,5.84-.71c3.42-.92,3.42-6.5,3.42-7.02s-5.75-.39-5.75-.39"/>
  <ellipse class="cls-5" cx="92.29" cy="144.41" rx="5.39" ry="7.77"/>
  <polygon class="cls-14" points="60.05 145.72 73.96 146.5 74.44 143.56 69.02 135.65 63.42 136.43 60.43 138.33 60.05 145.72"/>
  <path class="cls-5" d="M28.75,151.68s3.49,.6,5.72-.26,3.54-5.82,3.54-6.34-5.75-1.52-5.75-1.52"/>
  <path class="cls-5" d="M28.75,136.15c2.98,0,5.39,3.48,5.39,7.77s-2.41,8.11-5.39,8.11-5.39-3.83-5.39-8.11,2.41-7.77,5.39-7.77Z"/>
  <polygon class="cls-11" points="30.22 126.07 36.58 116.83 75.94 116.83 84.33 125.49 30.22 126.07"/>
  <path class="cls-5" d="M22.78,136.72s-.2,1.49,.93,4.94c0,0,.33-4.46,4.43-4.67s5.56,8.59,6.19,8.73,25.36,.13,25.7,0-.34-7.03,4.8-8.05c5.14-1.01,7.91,3.52,8.59,9.2,.56,.49,1.29,.73,2.03,.68,1.42,0,28.21-2.43,28.48-2.71s0-4.53,0-5.07-1.69-.46-1.69-.46l-26.72-8.66-14.34,1.35-27.6-1.35-7.84,.34c-1.89,1.29-3.01,3.45-2.96,5.74h0Z"/>
  <path class="cls-6" d="M101.98,129.68c-1.15-.88-16.57-4.8-16.57-4.8,0,0-8.25-8.59-10.55-9.42s-34.56-.15-39.89,0c-1.11,.03-3.06,4.4-3.87,5s-8.18,3.45-8.32,16.22c0,0,.06-2.7,3.71-3.52s7.35,1.19,8.48,9.17c0,0,23.05,.75,23.79,.61s.06-8.45,7.1-8.59c7.03-.13,8.59,6.89,11.09,7.3s24.76-2.09,25.3-2.37-.5-5.17,1.26-6.65c0,0-.37-2.08-1.52-2.96h-.01Zm-60.6-4.18s-8.12-.06-8.25,0,3.45-7.21,3.86-7.32c1.46-.08,2.93-.08,4.4,0,.27,.07,0,7.32,0,7.32h-.01Zm12.58,0h-11.23s0-7.1,.34-7.32,10.89,0,10.89,0v7.32Zm1.42,0l-.55-7.32s2.19,0,2.72,.33,2.49,6.99,2.49,6.99h-4.66Zm7.03,0s-2.9-6.41-2.9-7.02,15.82-.56,16.77-.36,6.26,6.07,6.95,6.83c0,0-20.82,.55-20.82,.55Z"/>
  <path class="cls-4" d="M42.73,126.68s-.46,10.31,0,14.64"/>
  <path class="cls-4" d="M57.95,141.66c.46-5.14,2.44-7.24,2.44-7.24v-7.74s2.32-.16,3.03,0,12.8,4.02,14.83,5.64"/>
  <path class="cls-10" d="M82.57,134.76c-.23-.15-5.56-1.56-6.63-1.08s-.61,3.71,0,3.92,7.37,.2,7.78-.4-.34-1.9-1.15-2.44Z"/>
  <path class="cls-15" d="M85.82,141.17c-.26-1.71-.22-3.46,.12-5.16,.11-.49,.53-.85,1.04-.89l12.8-.89c.63-.04,1.18,.43,1.22,1.06v.17c-.14,1.34-.09,2.69,.17,4.01l-15.35,1.69h0Z"/>
  <path class="cls-10" d="M77.41,139.1s.21,1.39,.42,1.55,6-.17,6.02-.38-.27-1.46-.27-1.46l-6.17,.29h0Z"/>
  <ellipse class="cls-12" cx="28.25" cy="144.44" rx="2.49" ry="5.06"/>
  <path class="cls-5" d="M66.16,152.2s3.61,.14,5.84-.71,3.42-5.37,3.42-5.89-5.75-1.52-5.75-1.52"/>
  <ellipse class="cls-5" cx="66.16" cy="144.43" rx="5.39" ry="7.77"/>
  <ellipse class="cls-12" cx="65.66" cy="144.8" rx="2.49" ry="5.06"/>
  <path class="cls-7" d="M61.98,188.94c20.64,0,37.52-15.39,38.82-34.84,.09-1.3-1-2.41-2.36-2.41H25.53c-1.37,0-2.45,1.11-2.36,2.41,1.3,19.45,18.18,34.84,38.82,34.84h-.01Z"/>
  <path class="cls-14" d="M244.29,194.99s3.61,.14,5.84-.71,3.42-5.37,3.42-5.89-5.75-1.53-5.75-1.53"/>
  <ellipse class="cls-5" cx="244.29" cy="187.22" rx="5.39" ry="7.77"/>
  <path class="cls-5" d="M290.89,195.13s3.53-.09,5.84-.71c3.42-.92,3.42-6.5,3.42-7.02s-5.75-.39-5.75-.39"/>
  <ellipse class="cls-5" cx="291.89" cy="187.36" rx="5.39" ry="7.77"/>
  <polygon class="cls-14" points="259.64 188.68 273.54 189.46 274.02 186.52 268.6 178.61 263.01 179.39 260.01 181.29 259.64 188.68"/>
  <path class="cls-5" d="M228.33,194.64s3.49,.6,5.72-.26,3.54-5.82,3.54-6.34-5.75-1.52-5.75-1.52"/>
  <path class="cls-5" d="M228.33,179.11c2.98,0,5.39,3.48,5.39,7.77s-2.41,8.11-5.39,8.11-5.39-3.83-5.39-8.11,2.41-7.77,5.39-7.77Z"/>
  <polygon class="cls-11" points="229.8 169.03 236.16 159.79 275.52 159.79 283.92 168.45 229.8 169.03"/>
  <path class="cls-5" d="M222.36,179.68s-.2,1.49,.93,4.94c0,0,.33-4.46,4.43-4.67s5.56,8.59,6.19,8.73,25.36,.13,25.7,0-.34-7.03,4.8-8.05c5.14-1.01,7.91,3.52,8.59,9.2,.56,.49,1.29,.73,2.03,.68,1.42,0,28.21-2.43,28.48-2.71s0-4.53,0-5.07-1.69-.46-1.69-.46l-26.72-8.66-14.34,1.35-27.6-1.35-7.84,.34c-1.89,1.29-3.01,3.45-2.96,5.74h0Z"/>
  <path class="cls-13" d="M301.57,172.64c-1.15-.88-16.57-4.8-16.57-4.8,0,0-8.25-8.59-10.55-9.42s-34.56-.15-39.89,0c-1.11,.03-3.06,4.4-3.87,5s-8.18,3.45-8.32,16.22c0,0,.06-2.7,3.71-3.52s7.35,1.19,8.48,9.17c0,0,23.05,.75,23.79,.61s.06-8.45,7.1-8.59c7.03-.13,8.59,6.89,11.09,7.3s24.76-2.09,25.3-2.37-.5-5.17,1.26-6.65c0,0-.37-2.08-1.52-2.96h-.01Zm-60.6-4.18s-8.12-.06-8.25,0,3.45-7.21,3.86-7.32c1.46-.08,2.93-.08,4.4,0,.27,.07,0,7.32,0,7.32h-.01Zm12.58,0h-11.23s0-7.1,.34-7.32,10.89,0,10.89,0v7.32Zm1.42,0l-.55-7.32s2.19,0,2.72,.33,2.49,6.99,2.49,6.99h-4.66Zm7.03,0s-2.9-6.41-2.9-7.02,15.82-.56,16.77-.36,6.26,6.07,6.95,6.83l-20.82,.55Z"/>
  <path class="cls-3" d="M242.32,169.64s-.46,10.31,0,14.64"/>
  <path class="cls-3" d="M257.54,184.62c.46-5.14,2.44-7.24,2.44-7.24v-7.74s2.32-.16,3.03,0,12.8,4.02,14.83,5.64"/>
  <path class="cls-10" d="M282.15,177.72c-.23-.15-5.56-1.56-6.63-1.08s-.61,3.71,0,3.92,7.37,.2,7.78-.4-.34-1.9-1.15-2.44Z"/>
  <path class="cls-11" d="M285.42,184.13c-.26-1.71-.22-3.46,.12-5.16,.11-.49,.53-.85,1.04-.89l12.8-.89c.63-.04,1.18,.43,1.22,1.06v.17c-.14,1.34-.09,2.69,.17,4.01l-15.35,1.69h0Z"/>
  <path class="cls-10" d="M277.01,182.05s.21,1.39,.42,1.55,6-.17,6.02-.38-.27-1.46-.27-1.46l-6.17,.29h0Z"/>
  <ellipse class="cls-11" cx="227.83" cy="187.4" rx="2.49" ry="5.06"/>
  <path class="cls-5" d="M265.74,195.16s3.61,.14,5.84-.71,3.42-5.37,3.42-5.89-5.75-1.52-5.75-1.52"/>
  <ellipse class="cls-5" cx="265.74" cy="187.39" rx="5.39" ry="7.77"/>
  <ellipse class="cls-11" cx="265.26" cy="187.76" rx="2.49" ry="5.06"/>
  <path class="cls-7" d="M261.57,231.9c20.64,0,37.52-15.39,38.82-34.84,.09-1.3-1-2.41-2.36-2.41h-72.91c-1.37,0-2.45,1.11-2.36,2.41,1.3,19.45,18.18,34.84,38.82,34.84h-.01Z"/>
  <path class="cls-8" d="M303.08,175.6s1.93,3.08-1.08,5.06c0,0-1.14-1.87,1.08-5.06Z"/>
  <path class="cls-8" d="M103.5,132.64s.88,1.24,.55,3.01-1.63,2.08-1.63,2.08c0,0-.6-3.64,1.08-5.08h0Z"/>
  <path class="cls-1" d="M103.53,133.26s-.37-3.08-1.52-3.96c-1.15-.88-16.57-4.8-16.57-4.8,0,0-8.25-8.59-10.55-9.42s-34.56-.15-39.89,0c-1.11,.03-3.06,4.4-3.87,5s-8.18,3.45-8.32,16.22"/>
  <path class="cls-1" d="M303.08,176.22s-.37-3.08-1.52-3.96-16.57-4.8-16.57-4.8c0,0-8.25-8.59-10.55-9.42s-34.56-.15-39.89,0c-1.11,.03-3.06,4.4-3.87,5s-8.18,3.45-8.32,16.22"/>
</svg>