<?xml version="1.0" encoding="UTF-8"?>
<svg id="Layer_1" data-name="Layer 1" xmlns="http://www.w3.org/2000/svg" viewBox="0 0 325 325">
  <defs>
    <style>
      .cls-1 {
        fill: #05203c;
      }

      .cls-2 {
        fill: #0162e1;
      }

      .cls-3 {
        fill: #0070eb;
      }

      .cls-4 {
        fill: #fff;
      }

      .cls-5 {
        fill: #feeb87;
      }

      .cls-6 {
        fill: #fdc071;
      }

      .cls-7 {
        fill: #fcf5cd;
      }

      .cls-8 {
        fill: #9fecfd;
      }

      .cls-9 {
        fill: #84c1fc;
      }

      .cls-10 {
        fill: #11103b;
      }

      .cls-11 {
        fill: #444562;
      }

      .cls-12 {
        fill: #5b9ff1;
      }

      .cls-13 {
        stroke: #0fa1a9;
        stroke-width: 8px;
      }

      .cls-13, .cls-14, .cls-15, .cls-16, .cls-17 {
        fill: none;
        stroke-linecap: round;
        stroke-linejoin: round;
      }

      .cls-14 {
        stroke: #fff;
      }

      .cls-14, .cls-15, .cls-16 {
        stroke-width: 1.09px;
      }

      .cls-15 {
        stroke: #444562;
      }

      .cls-16, .cls-17 {
        stroke: #002f8c;
      }

      .cls-17 {
        stroke-width: 1.09px;
      }
    </style>
  </defs>
  <path class="cls-5" d="M318.5,162.12c0,2.75-.07,5.49-.21,8.22-.23,4.42-.64,8.77-1.24,13.08-1.29,9.53-3.47,18.91-6.52,28.03-14.34,42.86-46.55,77.41-88.31,94.75-3.7,1.54-7.48,2.95-11.33,4.19-7.19,2.35-14.55,4.16-22.02,5.43-15.46,2.63-31.22,2.93-46.76,.89h-.09c-2.89-.37-5.76-.82-8.6-1.33l-2.53-.51-1.61-.33c-2.29-.49-4.57-1.04-6.8-1.64l-3.01-.82c-1.14-.33-2.29-.67-3.42-1.04l-2.36-.73c-1.54-.52-3.07-1.05-4.61-1.6l-2.53-.94-1.76-.69-2.41-.98c-.84-.35-1.68-.71-2.5-1.08l-1.74-.77c-.36-.16-.71-.31-1.05-.48l-1.66-.79-2.21-1.06-1.53-.79-2.3-1.18-2.66-1.44-.68-.39-2.45-1.41-.25-.15-2.92-1.76C27.06,261.7-1.31,199.89,8.38,137.86c.25-1.61,.53-3.22,.84-4.8s.55-2.78,.85-4.16C28.35,44.75,111.43-8.65,195.62,9.63c71.78,15.58,122.96,79.12,122.88,152.54v-.05Z"/>
  <ellipse class="cls-6" cx="162.5" cy="253.39" rx="119.29" ry="11.23"/>
  <path class="cls-10" d="M107.38,246.58s10.38,.41,16.8-2.05c6.42-2.46,9.83-15.43,9.83-16.93s-16.52-4.4-16.52-4.4"/>
  <ellipse class="cls-1" cx="107.38" cy="224.25" rx="15.5" ry="22.33"/>
  <path class="cls-1" d="M248.81,251.58s10.38,.41,16.8-2.04,9.83-15.44,9.83-16.93-16.53-4.37-16.53-4.37"/>
  <ellipse class="cls-1" cx="248.81" cy="229.26" rx="15.5" ry="22.33"/>
  <polygon class="cls-10" points="153.21 236.91 193.22 239.17 194.58 230.7 179.02 207.95 162.9 210.21 154.31 215.67 153.21 236.91"/>
  <path class="cls-1" d="M63.21,254.05s10.38,.41,16.8-2.05,9.83-15.43,9.83-16.93-16.53-4.37-16.53-4.37"/>
  <ellipse class="cls-1" cx="63.21" cy="231.72" rx="15.5" ry="22.33"/>
  <polygon class="cls-8" points="67.45 180.41 85.73 153.86 198.91 153.86 223.03 178.75 67.45 180.41"/>
  <path class="cls-1" d="M46.05,211.03s-.59,4.29,2.66,14.2c0,0,.96-12.83,12.74-13.42s15.99,24.7,17.8,25.09,72.93,.39,73.91,0-.97-20.23,13.8-23.14c14.78-2.92,22.76,10.11,24.7,26.45,1.61,1.4,3.71,2.1,5.84,1.95,4.09,0,81.1-7,81.89-7.78,.79-.79,0-13.03,0-14.59s-4.86-1.33-4.86-1.33l-76.83-24.89-41.24,3.89-79.36-3.89-22.56,.97c-5.44,3.71-8.64,9.91-8.5,16.49h0Z"/>
  <path class="cls-2" d="M273.79,190.81c-3.3-2.52-47.65-13.8-47.65-13.8,0,0-23.73-24.7-30.34-27.09-6.61-2.38-99.38-.44-114.7,0-3.18,.09-8.81,12.64-11.14,14.39s-23.53,9.93-23.92,46.63c0,0,.19-7.77,10.66-10.11,10.47-2.34,21.13,3.41,24.37,26.37,0,0,66.27,2.15,68.42,1.75s.19-24.3,20.41-24.69c20.23-.39,24.7,19.83,31.9,21,7.19,1.17,71.19-6.02,72.75-6.81s-1.44-14.86,3.61-19.13c.03,0-1.05-5.97-4.37-8.5h0Zm-174.26-12.07s-23.34-.19-23.73,0,9.93-20.72,11.09-21.04c4.21-.24,8.43-.24,12.64,0,.79,.2,0,21.04,0,21.04Zm36.17,0h-32.28s0-20.41,.97-21.05,31.31,0,31.31,0v21.05Zm4.09,0l-1.59-21.04s6.29,0,7.83,.95,7.17,20.09,7.17,20.09h-13.41Zm20.23,0s-8.33-18.44-8.33-20.2,45.49-1.61,48.22-1.03,18.01,17.45,19.99,19.64l-59.88,1.59Z"/>
  <path class="cls-16" d="M103.42,182.17s-1.33,29.65,0,42.09"/>
  <path class="cls-16" d="M147.18,225.24c1.33-14.78,7.01-20.81,7.01-20.81v-22.25s6.66-.47,8.71,0,36.8,11.55,42.64,16.23"/>
  <line class="cls-16" x1="106.93" y1="184.58" x2="117.23" y2="184.58"/>
  <ellipse class="cls-17" cx="73.94" cy="190.84" rx="4.49" ry="3.69" transform="translate(-119.74 124.68) rotate(-49.96)"/>
  <path class="cls-7" d="M217.98,205.4c-.65-.43-15.99-4.48-19.07-3.1s-1.75,10.66,0,11.27,21.2,.59,22.37-1.16-.97-5.45-3.3-7.01Z"/>
  <path class="cls-12" d="M227.33,223.82c-.75-4.93-.63-9.94,.35-14.83,.32-1.42,1.53-2.46,2.98-2.56l36.81-2.56c1.81-.12,3.38,1.25,3.51,3.06,.01,.17,.01,.33,0,.5-.41,3.85-.25,7.74,.48,11.54l-44.13,4.85h0Z"/>
  <path class="cls-7" d="M203.15,217.87s.6,4,1.2,4.45,17.24-.49,17.32-1.09-.77-4.2-.77-4.2l-17.75,.84h0Z"/>
  <path class="cls-11" d="M230.74,235.69v-8.9s41.69-4.62,42.38-4.36,1,7.86,.51,8.55-42.89,4.7-42.89,4.7h0Z"/>
  <ellipse class="cls-3" cx="248.99" cy="194.62" rx="3.85" ry="1.08"/>
  <path class="cls-4" d="M83.02,178.67l8.59-6.98,8.26-10.66s-.13,16.37-.35,17.79h-17.63"/>
  <polygon class="cls-4" points="104.35 178.75 121.89 173.35 135.71 157.7 135.71 178.75 104.35 178.75"/>
  <polygon class="cls-4" points="139.54 175.35 143.34 172.25 148.22 163.25 153.21 178.75 139.8 178.75 139.54 175.35"/>
  <path class="cls-4" d="M158.6,175.56l15.02-3.21,26.26-14.83c2.45,1.67,4.71,3.59,6.77,5.73l-13.82,7.09-11.29,7.85-21.52,.56-1.43-3.18h0Z"/>
  <ellipse class="cls-9" cx="61.77" cy="233.23" rx="7.17" ry="14.55"/>
  <path class="cls-1" d="M170.79,258.57s10.38,.41,16.8-2.05,9.83-15.43,9.83-16.93-16.52-4.37-16.52-4.37"/>
  <ellipse class="cls-1" cx="170.79" cy="236.24" rx="15.5" ry="22.33"/>
  <ellipse class="cls-9" cx="169.36" cy="237.75" rx="7.17" ry="14.55"/>
  <path class="cls-15" d="M157.3,225.24s2.12-12.82,13.48-13.11c11.37-.29,19.75,10.14,22.65,25.62"/>
  <path class="cls-15" d="M50.14,219.72c1.99-5.68,7.08-9.7,13.07-10.33,12.54-1.43,15.5,22.33,15.5,22.33l63.58,1.51"/>
  <path class="cls-14" d="M278.19,199.29c-.27-3.3-1.85-6.36-4.4-8.49-4.76-3.34-47.65-13.8-47.65-13.8-8-9.87-17.43-18.5-27.98-25.58-1.56-1.01-3.34-1.61-5.2-1.76-21.32-1.59-105.11,.13-105.11,.13l-6.78,.12c-2.84,0-11.14,14.39-11.14,14.39,0,0-23.5,10.93-23.66,41.1"/>
  <circle class="cls-4" cx="161.19" cy="85.91" r="47.07"/>
  <path class="cls-13" d="M135.18,95.03l14.12,14.12s16.16-24.49,37.9-40.02"/>
</svg>