<svg id="Layer_1" data-name="Layer 1" xmlns="http://www.w3.org/2000/svg" viewBox="0 0 250 250"><defs><style>.cls-1{fill:#a79acc;}.cls-2{fill:#111236;}.cls-3{fill:#8d8e9e;}.cls-4{fill:#fdb34e;}.cls-5{fill:#fd9201;}.cls-6{fill:#fde9ce;}.cls-7{fill:#ffb22c;}</style></defs><g id="Layer_2" data-name="Layer 2"><ellipse class="cls-1" cx="131.83" cy="196.75" rx="101.36" ry="31.16"/><ellipse class="cls-2" cx="131.56" cy="190.77" rx="90.51" ry="27.82"/><path class="cls-3" d="M124.38,183.56v11.86a5.33,5.33,0,0,0,5.31,5.32h0a5.32,5.32,0,0,0,5.31-5.32h0V170.67H124.38Z"/><path class="cls-4" d="M210.48,168.3A84.53,84.53,0,0,0,42.62,148.16h0S39.41,175,123.34,185.05,210.48,168.3,210.48,168.3Z"/><path class="cls-5" d="M142.31,62.08A15.17,15.17,0,0,0,146.12,54c.09-.77-2.85-1.75-6.48-2.2s-6.72-.15-6.81.62a15.14,15.14,0,0,0,1.79,8.72c2.38,3.82-7.14,6.24-8.3,16-.14,1.16,4.44,2.66,10.24,3.36s10.6.31,10.75-.85C148.55,69.9,139.1,65.23,142.31,62.08Z"/><path class="cls-4" d="M146.12,53.93c-.08.81-3.14,1.12-6.81.68s-6.46-1.46-6.46-2.27,3.15-1.13,6.81-.68S146.22,53.11,146.12,53.93Z"/><path class="cls-6" d="M51.38,148.43c1.85-7.64,15.34-55.42,64.09-66.7a1.77,1.77,0,0,1,1.67,3c-10.69,10-35.53,36.76-42.11,76.91a1.78,1.78,0,0,1-2,1.48l-.22,0C69.32,162,61.63,158.91,52,150.24A1.8,1.8,0,0,1,51.38,148.43Z"/><path class="cls-4" d="M135.27,54.94a.89.89,0,0,0-1.1.58.86.86,0,0,0,0,.55,26.66,26.66,0,0,0,2.23,5.42c1,1.16-1.27,4.44-2.85,5.81a26.19,26.19,0,0,0-5.14,8.57A.87.87,0,0,0,129,77a18,18,0,0,0,2.29.63.89.89,0,0,0,1-.7h0c.34-1.92,1.28-6.51,2.85-8.34a11,11,0,0,0,2.6-6.82,33.69,33.69,0,0,1-.53-5.49.86.86,0,0,0-.71-.91A10.26,10.26,0,0,1,135.27,54.94Z"/><path class="cls-5" d="M136.6,74.28l-1.11-.11c15.36,14.57,43.27,46.17,45.89,85.18a109.19,109.19,0,0,1-1.27,26.35c28.81-4.55,30.37-17.4,30.37-17.4a84.51,84.51,0,0,0-73.8-94Z"/></g><path class="cls-7" d="M36.79,78.37a6.22,6.22,0,1,0,4.05-11.76l-.2-.07L13.87,57.81a2.3,2.3,0,0,0-2.35.72,11.86,11.86,0,0,0-2.19,4.32,12,12,0,0,0-.76,4.82,2.27,2.27,0,0,0,1.47,2Z"/><path class="cls-7" d="M38.86,100a6.12,6.12,0,0,0,3.93-2.69,6.24,6.24,0,0,0-6.5-9.5L8.75,93.63a2.29,2.29,0,0,0-1.69,1.81,12.25,12.25,0,0,0,.23,4.86A11.73,11.73,0,0,0,9,104.82a2.27,2.27,0,0,0,2.24.91Z"/><path class="cls-7" d="M55.05,50.3a6.19,6.19,0,1,1-9.22,8.26L27,37.69a2.28,2.28,0,0,1-.31-2.48,11.92,11.92,0,0,1,3.07-3.8,11.82,11.82,0,0,1,4.1-2.65,2.3,2.3,0,0,1,2.39.55Z"/><path class="cls-7" d="M75.65,43.41a6.23,6.23,0,0,1-12.17,2.64L57.63,18.46a2.28,2.28,0,0,1,.91-2.23,12.16,12.16,0,0,1,4.53-1.74,11.67,11.67,0,0,1,4.85-.24,2.25,2.25,0,0,1,1.8,1.67Z"/><path class="cls-7" d="M96.92,47.81A6.23,6.23,0,0,1,85.08,44l8.73-26.78a2.25,2.25,0,0,1,2-1.48,11.93,11.93,0,0,1,4.81.75,11.9,11.9,0,0,1,4.34,2.24,2.27,2.27,0,0,1,.72,2.35Z"/></svg>