<?xml version="1.0" encoding="UTF-8"?>
<svg id="Layer_1" data-name="Layer 1" xmlns="http://www.w3.org/2000/svg" viewBox="0 0 325 324.99">
  <defs>
    <style>
      .cls-1 {
        stroke: #444562;
      }

      .cls-1, .cls-2, .cls-3, .cls-4, .cls-5, .cls-6, .cls-7 {
        fill: none;
        stroke-linecap: round;
        stroke-linejoin: round;
      }

      .cls-2, .cls-7 {
        stroke: #002f8c;
      }

      .cls-3 {
        stroke: #fff;
      }

      .cls-3, .cls-4, .cls-5, .cls-6 {
        stroke-width: 1.43px;
      }

      .cls-4 {
        stroke: #0062e3;
      }

      .cls-8 {
        fill: #003f77;
      }

      .cls-9 {
        fill: #05203c;
      }

      .cls-10 {
        fill: #0162e1;
      }

      .cls-11 {
        fill: #0062e3;
      }

      .cls-12 {
        fill: #0070eb;
      }

      .cls-13 {
        fill: #e70866;
      }

      .cls-14 {
        fill: #fff;
      }

      .cls-15 {
        fill: #fcf5cd;
      }

      .cls-16 {
        fill: #9fecfd;
      }

      .cls-17 {
        fill: #9295ad;
      }

      .cls-18 {
        fill: #84c1fc;
      }

      .cls-19 {
        fill: #8e47ba;
      }

      .cls-20 {
        fill: #acaecc;
      }

      .cls-21 {
        fill: #d4fff2;
      }

      .cls-22 {
        fill: #0fa1a9;
      }

      .cls-23 {
        fill: #11103b;
      }

      .cls-24 {
        fill: #444562;
      }

      .cls-25 {
        fill: #a1eeff;
      }

      .cls-26 {
        fill: #642193;
      }

      .cls-27 {
        fill: #5b9ff1;
      }

      .cls-28 {
        fill: #60daef;
      }

      .cls-29 {
        fill: #50a4ff;
      }

      .cls-5 {
        stroke: #50a4ff;
      }

      .cls-6 {
        stroke: #7b7fa3;
      }

      .cls-7 {
        stroke-width: 1px;
      }
    </style>
  </defs>
  <g id="Base">
    <path class="cls-21" d="M318.49,162.5c0,35.91-12.14,69-32.55,95.35-18.02,23.32-27.32,27.64-32.17,31.14-4.68,3.4-9.57,6.53-14.63,9.39-4.38,2.48-8.89,4.75-13.52,6.79-19.3,8.57-40.66,13.31-63.13,13.31C76.35,318.48,6.51,248.63,6.51,162.49S76.34,6.5,162.49,6.5s156.01,69.85,156.01,156.01h0Z"/>
    <path class="cls-25" d="M291.18,264.45l-58.51-29.55c-.73-.37-1.53-.55-2.33-.53-.75,0-1.51,.19-2.19,.54l-64.4,32.8c-.71,.37-1.49,.55-2.27,.55s-1.55-.18-2.27-.55l-64.39-32.8c-.32-.16-.66-.29-1.01-.38-1.17-.31-2.42-.18-3.51,.37l-58.51,29.55c-3.65,1.84-7.84-1.23-7.19-5.26L53.86,77.86c.21-1.3,.93-2.46,1.99-3.24l49.04-35.79c.85-.62,1.83-.93,2.82-.96,1.08-.02,2.16,.3,3.07,.96l47.76,34.85c.87,.64,1.91,.96,2.94,.96s2.07-.32,2.95-.96l47.75-34.85c.42-.31,.88-.54,1.35-.7,1.51-.51,3.21-.27,4.55,.7l49.04,35.79c1.06,.78,1.77,1.94,1.98,3.24l29.27,181.33c.65,4.03-3.55,7.1-7.19,5.26h0Z"/>
    <path class="cls-28" d="M107.71,37.87l-13.9,196.66c-1.17-.31-2.42-.18-3.51,.37l-58.51,29.55c-3.65,1.84-7.84-1.23-7.19-5.26L53.86,77.86c.21-1.3,.93-2.46,1.99-3.24l49.04-35.79c.85-.62,1.83-.93,2.82-.96h0Z"/>
    <path class="cls-28" d="M230.35,234.37c-.75,0-1.51,.19-2.19,.54l-64.4,32.8c-.71,.37-1.49,.55-2.27,.55V74.64c1.03,0,2.07-.32,2.95-.96l47.75-34.85c.42-.31,.88-.54,1.35-.7l16.81,196.24h0Z"/>
    <circle class="cls-14" cx="85.15" cy="204.35" r="19.01"/>
    <path class="cls-19" d="M76.58,197.24h-1.69c-.47,0-1.13,0-1.13,1.13s.66,1.13,1.13,1.13h10.13c1.42,0,2.25,0,2.82,.56l1.41,2.9c.62,1.23-.05,2.16-.84,2.17h-14.64c-.62,0-1.13,.5-1.13,1.13v3.23s0,2.92,1.7,3.44c.3,.09,.55-.17,.59-.48,.26-1.88,1.8-2.82,3.34-2.82s3.08,.94,3.34,2.82c.04,.31,.29,.56,.6,.56h7.88c.31,0,.56-.25,.59-.56,.18-1.88,1.27-2.82,3.35-2.82,1.96,0,3.16,.94,3.35,2.82,.03,.31,.28,.56,.59,.56h.56c.89-.31,1.17-2.05,1.11-3.3,.05-1.21,0-3.69-1.18-4.29-1.74-.88-3.25-1.1-4.39-1.19-.34-.03-.64-.2-.84-.48l-3.32-4.69c-1.21-1.53-2.39-1.82-4.33-1.82"/>
    <path class="cls-19" d="M96.28,213.01c0,1.24-1.01,2.25-2.25,2.25s-2.25-1.01-2.25-2.25,1.01-2.25,2.25-2.25,2.25,1.01,2.25,2.25Z"/>
    <path class="cls-19" d="M78.27,215.26c1.24,0,2.25-1.01,2.25-2.25s-1.01-2.25-2.25-2.25-2.25,1.01-2.25,2.25,1.01,2.25,2.25,2.25Z"/>
    <circle class="cls-14" cx="76.33" cy="91.36" r="19.01"/>
    <path class="cls-13" d="M91.7,93.82v1.28c0,1.28,0,3.2-1.28,3.2h-.64c-.35,0-.64-.29-.68-.64-.29-2.11-2.05-3.2-3.8-3.2s-3.51,1.07-3.8,3.2c-.05,.35-.33,.5-.68,.5h-8.68c-.52,0-.93-.29-1.03-.79-.41-1.92-2.08-2.91-3.75-2.91s-3.48,1.05-3.8,3.15c-.06,.37-.37,.69-.75,.69h-.16c-1.26,0-1.59-2.08-1.68-3.18-.03-.43,.08-.86,.29-1.24l2.12-3.84c.22-.43,.78-.85,1.42-.85h14.09c1.28,0,1.13-1.01,.25-1.65-.72-.52-1.32-.91-2.04-1.18-1.13-.43-2.45-.65-3.92-.65-1.28,0-2.67,.16-4.13,.49-1.78,.4-4.15,1.13-5.64,1.65-.37,.12-.75-.09-.88-.48h0c-.13-.42,.06-.87,.43-1.02,1.17-.46,3.35-1.25,5.79-1.8,1.55-.35,2.97-.49,4.26-.48h.13c1.72,0,3.25,.23,4.48,.7,1.76,.67,4.26,2.87,5.19,3.72,.24,.22,.54,.34,.86,.37,1.08,.09,3.75,.44,6.14,1.76,1.28,.64,1.92,1.92,1.92,3.2h-.03Z"/>
    <path class="cls-13" d="M69.91,98.16c0,1.42-1.15,2.56-2.56,2.56s-2.56-1.15-2.56-2.56,1.15-2.56,2.56-2.56,2.56,1.15,2.56,2.56Z"/>
    <path class="cls-13" d="M87.86,98.16c0,1.42-1.15,2.56-2.56,2.56s-2.56-1.15-2.56-2.56,1.15-2.56,2.56-2.56,2.56,1.15,2.56,2.56Z"/>
    <circle class="cls-14" cx="268.83" cy="180.49" r="19.01"/>
    <path class="cls-22" d="M283.98,182.38v2.02c0,.84-.68,1.52-1.52,1.52h0c-.27,0-.5-.2-.53-.47-.22-1.69-1.61-2.57-3.01-2.57s-2.74,.82-2.99,2.47c-.04,.26-.28,.45-.55,.45h-11.53c-.4,0-.74-.29-.83-.68-.34-1.48-1.65-2.24-2.95-2.24-1.37,0-2.75,.83-3,2.48-.04,.29-.29,.55-.59,.55h-.12c-1,0-2.6-1.64-2.66-2.51-.03-.34,.06-.68,.23-.98h0c.22-1.99,1.83-3.54,3.82-3.68,.14,0,.25-.02,.32-.02h11.12c1.01,0,.89-.8,.2-1.3-.57-.41-1.04-.72-1.61-.93-.89-.34-1.93-.51-3.1-.51-1.01,0-2.11,.13-3.26,.39-1.41,.31-3.27,.89-4.45,1.3-.29,.1-.59-.07-.7-.38h0c-.1-.33,.04-.69,.34-.8,.92-.37,2.64-.99,4.57-1.42,1.22-.27,2.35-.38,3.36-.38h.1c1.35,0,2.56,.18,3.54,.55,1.39,.53,3.36,2.27,4.09,2.94,.19,.17,.42,.27,.68,.29,.85,.07,7.64,.35,9.53,1.39,1.01,.51,1.52,1.52,1.52,2.53h-.02Z"/>
    <path class="cls-22" d="M262.1,185.81c0,1.12-.91,2.02-2.02,2.02s-2.02-.9-2.02-2.02,.91-2.02,2.02-2.02,2.02,.9,2.02,2.02Z"/>
    <path class="cls-22" d="M280.95,185.81c0,1.12-.91,2.02-2.02,2.02s-2.02-.9-2.02-2.02,.91-2.02,2.02-2.02,2.02,.9,2.02,2.02Z"/>
    <ellipse class="cls-26" cx="277.6" cy="257.48" rx="14.25" ry="3.1" transform="translate(-100.98 251.62) rotate(-41.96)"/>
    <rect class="cls-8" x="269" y="255.29" width="28.5" height="16.9" transform="translate(-103.71 257) rotate(-41.96)"/>
    <path class="cls-8" d="M286.83,267.76c5.85-5.26,11.53-8.5,12.67-7.23s-1.97,7.29-7.82,12.56c-5.85,5.26-12.23,7.77-13.38,6.5-1.14-1.27,2.68-6.57,8.53-11.83Z"/>
    <path class="cls-11" d="M287.93,250.04l-1.48-1.15-46.8-52.05-18.32,16.47,46.8,52.05,1.36,1.2c.99,1.1,5.92-1.7,11.01-6.26s8.42-9.16,7.43-10.26h0Z"/>
    <path class="cls-4" d="M276.92,276.66c2.29-.5,7.93-2.5,12.46-6.57,4.52-4.07,6.61-9.04,7.35-11.21"/>
    <ellipse class="cls-29" cx="230.49" cy="205.1" rx="12.32" ry="2.67" transform="translate(-78.04 206.69) rotate(-41.96)"/>
    <path class="cls-20" d="M224.85,187.5l10.68,11.88h0c.58,.68-1.46,3.46-4.5,6.28-3.05,2.81-6.03,4.47-6.68,3.83h0l-10.69-11.94,11.19-10.04h0Z"/>
    <circle class="cls-14" cx="170.96" cy="138.81" r="73.43"/>
    <path class="cls-17" d="M181.07,60.6c-43.2-5.59-82.74,24.9-88.33,68.1v.03c-5.56,43.18,24.92,82.7,68.1,88.3,43.2,5.59,82.74-24.9,88.33-68.1s-24.9-82.74-68.1-88.33h0Zm5.89,144.15h0c-36.75,8.92-73.77-13.65-82.69-50.4h0c-8.92-36.77,13.65-73.79,50.41-82.71,36.76-8.92,73.78,13.65,82.7,50.41,8.92,36.76-13.65,73.78-50.41,82.7h0Z"/>
    <path class="cls-5" d="M228.19,219.71c1.99-.43,5.79-2.89,9.7-6.4,3.91-3.5,6.75-7.04,7.39-8.96"/>
    <path class="cls-5" d="M232.01,223.94c1.98-.42,5.79-2.89,9.68-6.4,3.9-3.5,6.76-7.04,7.4-8.96"/>
    <path class="cls-6" d="M220.03,200.54s4.49-3.66,6.75-6.02"/>
    <path class="cls-3" d="M300.51,261.68s-11.23-13.41-12.31-13.73-2.46,.15-2.46,.15l-46.09-51.23c-1.89-.41-4.45,1.31-4.45,1.31l-4.85-5.06"/>
  </g>
  <g id="Layer_2" data-name="Layer 2">
    <path class="cls-23" d="M140.88,162.86s5.36,.21,8.67-1.06,5.08-7.96,5.08-8.74-8.53-2.27-8.53-2.27"/>
    <ellipse class="cls-9" cx="140.88" cy="151.34" rx="8" ry="11.53"/>
    <path class="cls-9" d="M213.88,165.44s5.36,.21,8.67-1.05,5.08-7.97,5.08-8.74-8.53-2.26-8.53-2.26"/>
    <ellipse class="cls-9" cx="213.88" cy="153.92" rx="8" ry="11.53"/>
    <polygon class="cls-23" points="164.54 157.87 185.19 159.04 185.89 154.67 177.86 142.93 169.54 144.09 165.1 146.91 164.54 157.87"/>
    <path class="cls-9" d="M118.09,166.72s5.36,.21,8.67-1.06,5.08-7.96,5.08-8.74-8.53-2.26-8.53-2.26"/>
    <ellipse class="cls-9" cx="118.09" cy="155.19" rx="8" ry="11.53"/>
    <polygon class="cls-16" points="120.27 128.71 129.71 115.01 188.13 115.01 200.58 127.85 120.27 128.71"/>
    <path class="cls-9" d="M109.23,144.51s-.3,2.21,1.38,7.33c0,0,.5-6.62,6.57-6.93s8.25,12.75,9.19,12.95,37.65,.2,38.15,0-.5-10.44,7.12-11.95c7.63-1.51,11.75,5.22,12.75,13.65,.83,.72,1.91,1.08,3.01,1,2.11,0,41.86-3.61,42.27-4.02s0-6.73,0-7.53-2.51-.69-2.51-.69l-39.65-12.85-21.28,2.01-40.96-2.01-11.64,.5c-2.81,1.91-4.46,5.12-4.39,8.51v.03Z"/>
    <path class="cls-10" d="M226.78,134.08c-1.71-1.3-24.59-7.12-24.59-7.12,0,0-12.25-12.75-15.66-13.98s-51.3-.23-59.2,0c-1.64,.05-4.55,6.53-5.75,7.43s-12.14,5.12-12.34,24.07c0,0,.1-4.01,5.5-5.22,5.4-1.21,10.91,1.76,12.58,13.61,0,0,34.21,1.11,35.31,.9s.1-12.54,10.54-12.74c10.44-.2,12.75,10.23,16.46,10.84s36.74-3.11,37.55-3.51-.74-7.67,1.86-9.88c0,0-.54-3.08-2.26-4.39h0Zm-89.95-6.23s-12.05-.1-12.25,0,5.12-10.69,5.72-10.86c2.17-.12,4.35-.12,6.53,0,.41,.1,0,10.86,0,10.86Zm18.67,0h-16.66s0-10.54,.5-10.87,16.16,0,16.16,0v10.87Zm2.11,0l-.82-10.86s3.25,0,4.04,.49,3.7,10.37,3.7,10.37h-6.92Zm10.44,0s-4.3-9.52-4.3-10.43,23.48-.83,24.89-.53,9.3,9.01,10.32,10.14l-30.91,.82h0Z"/>
    <path class="cls-2" d="M138.84,129.62s-.69,15.3,0,21.72"/>
    <path class="cls-2" d="M161.42,151.85c.69-7.63,3.62-10.74,3.62-10.74v-11.48s3.44-.24,4.5,0,18.99,5.96,22.01,8.38"/>
    <line class="cls-2" x1="140.65" y1="130.86" x2="145.97" y2="130.86"/>
    <ellipse class="cls-7" cx="123.63" cy="134.11" rx="2.32" ry="1.9" transform="translate(-58.58 142.48) rotate(-49.96)"/>
    <path class="cls-15" d="M197.97,141.61c-.34-.22-8.25-2.31-9.84-1.6s-.9,5.5,0,5.82,10.94,.3,11.55-.6-.5-2.81-1.71-3.62Z"/>
    <path class="cls-27" d="M202.8,151.12c-.39-2.54-.32-5.13,.18-7.65,.17-.73,.79-1.27,1.54-1.32l19-1.32c.94-.06,1.75,.64,1.81,1.58v.26c-.21,1.99-.13,3.99,.25,5.96l-22.78,2.5h0Z"/>
    <path class="cls-15" d="M190.32,148.04s.31,2.06,.62,2.3,8.9-.25,8.94-.56-.4-2.17-.4-2.17l-9.16,.43Z"/>
    <path class="cls-24" d="M204.56,157.24v-4.59s21.52-2.39,21.88-2.25,.52,4.06,.26,4.42-22.14,2.43-22.14,2.43h0Z"/>
    <ellipse class="cls-12" cx="213.97" cy="136.04" rx="1.99" ry=".56"/>
    <path class="cls-14" d="M128.31,127.81l4.44-3.6,4.26-5.5s-.07,8.45-.18,9.18h-9.1"/>
    <polygon class="cls-14" points="139.32 127.85 148.37 125.07 155.5 116.99 155.5 127.85 139.32 127.85"/>
    <polygon class="cls-14" points="157.48 126.1 159.44 124.5 161.96 119.85 164.54 127.85 157.62 127.85 157.48 126.1"/>
    <path class="cls-14" d="M167.32,126.21l7.75-1.66,13.55-7.65c1.26,.86,2.43,1.86,3.49,2.96l-7.13,3.66-5.82,4.05-11.11,.29-.74-1.64h.01Z"/>
    <ellipse class="cls-18" cx="117.34" cy="155.97" rx="3.7" ry="7.51"/>
    <path class="cls-9" d="M173.61,169.05s5.36,.21,8.67-1.06,5.08-7.96,5.08-8.74-8.53-2.26-8.53-2.26"/>
    <ellipse class="cls-9" cx="173.61" cy="157.53" rx="8" ry="11.53"/>
    <ellipse class="cls-18" cx="172.88" cy="158.3" rx="3.7" ry="7.51"/>
    <path class="cls-1" d="M166.65,151.85s1.09-6.62,6.96-6.77c5.87-.15,10.19,5.23,11.69,13.22"/>
    <path class="cls-1" d="M111.34,149c1.03-2.93,3.66-5.01,6.75-5.33,6.47-.74,8,11.53,8,11.53l32.82,.78"/>
    <path class="cls-15" d="M229.03,138.46s1.64,2.32,.81,4.47-2.42,2.54-2.42,2.54c0,0-.76-5.38,1.61-7.01Z"/>
  </g>
</svg>