<?xml version="1.0" encoding="UTF-8"?>
<svg id="Layer_2" data-name="Layer 2" xmlns="http://www.w3.org/2000/svg" viewBox="0 0 250 250">
  <defs>
    <style>
      .cls-1 {
        stroke: #8f90a0;
      }

      .cls-1, .cls-2 {
        stroke-linecap: round;
        stroke-linejoin: round;
      }

      .cls-1, .cls-2, .cls-3 {
        fill: none;
      }

      .cls-2 {
        stroke: #b2b2c0;
      }

      .cls-4 {
        fill: #004cc0;
      }

      .cls-5 {
        fill: #0062e3;
      }

      .cls-6 {
        fill: #fff;
      }

      .cls-7 {
        fill: #ffa3e5;
      }

      .cls-8 {
        fill: #cdcdd9;
      }

      .cls-9 {
        fill: #b2b2c0;
      }

      .cls-3 {
        opacity: .3;
        stroke: #5e45a0;
        stroke-miterlimit: 10;
        stroke-width: 2px;
      }

      .cls-3, .cls-10, .cls-11 {
        isolation: isolate;
      }

      .cls-10 {
        fill: #5e45a0;
        opacity: .4;
      }
    </style>
  </defs>
  <path class="cls-7" d="m242.14,119.86c0,2.07-.05,4.14-.16,6.18-.17,3.32-.48,6.59-.93,9.83-.97,7.16-2.61,14.22-4.9,21.07-.51,1.57-1.06,3.12-1.67,4.65-1.26,3.34-2.69,6.62-4.26,9.8-.78,1.62-1.61,3.22-2.47,4.79h0c-.54,1-1.08,1.91-1.64,2.86h0c-1.22,2.08-2.49,4.12-3.84,6.11h0c-.5.73-1,1.45-1.52,2.17h0c-9.09,12.89-20.68,23.82-34.08,32.14-2.66,1.66-5.41,3.22-8.22,4.66-.81.42-1.63.83-2.46,1.22-1.95.95-3.93,1.84-5.95,2.68-2.85,1.2-5.77,2.27-8.74,3.24-16.65,5.43-34.31,7.07-51.67,4.79h-.07c-2.17-.28-4.33-.61-6.46-1-.63-.12-1.26-.24-1.9-.38l-1.21-.25c-1.72-.37-3.43-.78-5.11-1.23-.76-.19-1.51-.41-2.26-.62s-1.72-.5-2.57-.77l-1.77-.57c-1.16-.39-2.31-.78-3.46-1.19l-1.9-.72-1.32-.52c-1.24-.49-2.48-1-3.69-1.55l-1.31-.58c-.27-.12-.53-.23-.79-.36l-1.25-.59-1.66-.8-1.15-.59c-.58-.28-1.16-.59-1.73-.89l-2-1.08-.51-.29c-.62-.34-1.23-.7-1.84-1.06l-.19-.11-2.19-1.32c-2.89-1.81-5.67-3.73-8.34-5.77-2.31-1.71-4.55-3.52-6.72-5.4-.92-.8-1.82-1.6-2.71-2.43-2.26-2.08-4.43-4.25-6.51-6.5C14.66,173.12,3.69,137.09,9.21,101.64c.19-1.21.4-2.41.63-3.61.2-1,.41-2.09.64-3.12C24.22,31.66,86.63-8.47,149.87,5.26c53.93,11.71,92.38,59.46,92.32,114.65l-.05-.05Z"/>
  <path class="cls-10" d="m133.18,153.8h-51.48c-3.67,0-6.64-2.97-6.64-6.64V35.34c0-3.66,2.97-6.63,6.63-6.63,0,0,0,0,.01,0l47.25-4.26c3.67,0,10.89,4.05,10.89,10.89v111.82c0,3.66-2.96,6.63-6.62,6.64-.01,0-.03,0-.04,0Z"/>
  <path class="cls-10" d="m147.79,96.77h19.53c.54,0,1.06.18,1.48.51,1.48,1.17,5.05,3.93,5.57,3.93h0c1.32,0,2.39-1.07,2.39-2.39,0-.02,0-.05,0-.07l-.6-21.81c-.04-1.32-1.14-2.36-2.46-2.32-.06,0-.12,0-.17.01l-27.06,2.77c-1.28.14-2.22,1.26-2.13,2.55l1.07,14.61c.09,1.25,1.13,2.21,2.38,2.21Z"/>
  <rect class="cls-8" x="68.31" y="22.78" width="64.75" height="125.09" rx="6.64" ry="6.64"/>
  <path class="cls-5" d="m167.28,221.64l-17.24-121.44-.09-.66c-.55-3.85-1.52-7.63-2.9-11.27-10.26-26.78-40.29-40.18-67.07-29.92-22.61,8.66-36.23,31.8-32.84,55.78l17.33,122.11c1,7.11,7.57,12.06,14.68,11.07.01,0,.03,0,.04,0l77-10.93c7.11-.98,12.08-7.54,11.1-14.66,0-.02,0-.05-.01-.07ZM74.28,88.34c-1.88-11.69,6.06-22.69,17.75-24.58,11.69-1.88,22.69,6.06,24.58,17.75.04.27.08.55.12.82.23,1.55.27,3.12.14,4.68-.9,11.8-11.2,20.64-23,19.73-10.04-.77-18.19-8.42-19.59-18.39v-.02Z"/>
  <g class="cls-11">
    <path class="cls-6" d="m70.35,154.06c-1.38-9.76,5.2-16.65,13.4-17.81s16.43,3.63,17.81,13.4c1.38,9.76-5.2,16.65-13.4,17.81-8.2,1.16-16.43-3.64-17.81-13.4Zm22.93-3.24c-.79-5.58-4.86-7.32-8.43-6.81s-7,3.3-6.21,8.88c.79,5.58,4.86,7.32,8.43,6.81s7-3.3,6.21-8.88Zm-9.8,43.89c-.5-.37-.63-.71-.35-1.2l40.84-62.68c.29-.49.82-.47,1.22-.17l4.33,2.94c.5.38.63.71.35,1.2l-40.84,62.68c-.29.48-.82.47-1.22.17l-4.33-2.95Zm28.22-16.08c-1.38-9.76,5.2-16.65,13.4-17.81,8.19-1.16,16.43,3.63,17.81,13.4s-5.2,16.65-13.4,17.81c-8.19,1.16-16.43-3.63-17.81-13.4Zm22.93-3.24c-.79-5.58-4.86-7.32-8.43-6.81-3.57.51-7,3.3-6.21,8.88s4.86,7.32,8.43,6.81c3.57-.51,7-3.3,6.21-8.88Z"/>
  </g>
  <path class="cls-4" d="m150.04,100.2l-51.53,6.35c9.93-1.4,17.55-9.51,18.35-19.5l30.19,1.27c1.38,3.62,2.35,7.38,2.9,11.22l.09.66Z"/>
  <circle class="cls-9" cx="95.53" cy="81.08" r="18.69"/>
  <path class="cls-9" d="m104.8,71.9h72.66c.59,0,1.15.24,1.57.65l8.44,8.44c.41.42.65.98.65,1.57v13.49c0,1.22-.98,2.21-2.21,2.21-.59,0-1.16-.23-1.57-.65l-6.92-6.92c-.41-.41-.97-.65-1.56-.65h-71.06v-21"/>
  <path class="cls-1" d="m114.22,74.37s2.64,6.93-1.14,13.13"/>
  <path class="cls-8" d="m187.47,80.99l-8.44-8.44c-.12-.11-.25-.21-.38-.3.44,1.1.68,2.27.68,3.45v11.8s-.4,2.46-1.6,3.45l6.61,6.61c.86.87,2.26.87,3.13.02.41-.4.64-.95.65-1.53v-13.49c0-.59-.24-1.15-.65-1.57Z"/>
  <line class="cls-3" x1="27.15" y1="70.98" x2="27.15" y2="164.7"/>
  <path class="cls-2" d="m71.44,59.64v-28.95c0-2.27,1.84-4.11,4.11-4.11h50.53c2.27,0,4.11,1.84,4.11,4.11v9"/>
</svg>