<svg id="Layer_1" data-name="Layer 1" xmlns="http://www.w3.org/2000/svg" viewBox="0 0 250 250"><defs><style>.cls-1{fill:#91fddc;}.cls-2{fill:#a60c5d;}.cls-3{fill:#e23359;}.cls-4{fill:#d25238;}.cls-10,.cls-16,.cls-5,.cls-6,.cls-9{fill:none;stroke-linecap:round;stroke-linejoin:round;stroke-width:0.82px;}.cls-5{stroke:#a60c5d;}.cls-6{stroke:#e6644e;}.cls-15,.cls-7{fill:#fff;}.cls-8{fill:#8c47b8;}.cls-9{stroke:#ffb22c;}.cls-10{stroke:#e23359;}.cls-11{fill:#5e45a0;}.cls-12,.cls-14{opacity:0.3;}.cls-13,.cls-14{fill:#a79acc;}.cls-15{opacity:0.4;}.cls-16{stroke:#a03624;}</style></defs><path class="cls-1" d="M242.19,125q0,3.1-.16,6.18c-.17,3.32-.48,6.59-.93,9.83a115.33,115.33,0,0,1-4.9,21.07,117.45,117.45,0,0,1-66.34,71.21c-2.78,1.16-5.62,2.22-8.51,3.15a115.15,115.15,0,0,1-16.54,4.08,118.12,118.12,0,0,1-35.13.67h-.07c-2.17-.28-4.33-.62-6.46-1l-1.9-.38-1.21-.25c-1.72-.37-3.43-.78-5.11-1.23l-2.26-.62c-.86-.25-1.72-.5-2.57-.78l-1.77-.56c-1.16-.39-2.31-.79-3.46-1.2l-1.9-.71-1.32-.52-1.81-.74c-.63-.26-1.26-.53-1.88-.81l-1.31-.58c-.27-.12-.53-.23-.79-.36l-1.25-.59L73,230l-1.15-.59-1.73-.89-2-1.08-.51-.29-1.84-1.06-.19-.11q-1.1-.64-2.19-1.32a117.62,117.62,0,0,1-43-47,115.74,115.74,0,0,1-9.39-25.8,118.49,118.49,0,0,1-1.71-45.13c.19-1.21.4-2.42.63-3.61s.41-2.09.64-3.13a117.19,117.19,0,0,1,231.71,25Z"/><path class="cls-2" d="M128.29,182.88V37.82H117.68V182.88A27.83,27.83,0,0,1,107.93,204l-8,6.82L123,220l23-9.17L138,204A27.83,27.83,0,0,1,128.29,182.88Z"/><path class="cls-3" d="M121.52,48.81a10.39,10.39,0,0,0,5.36-.16l21-6.27a20.77,20.77,0,0,1,13,.37,280.27,280.27,0,0,1,41,18.42,2.56,2.56,0,0,0,2.83-.2,14.69,14.69,0,0,0,3.53-4.06,14.3,14.3,0,0,0,1.94-5,2.52,2.52,0,0,0-1.24-2.66C202.14,45.4,172,29,128.69,18.69s-77.6-9.27-85.4-8.86A2.54,2.54,0,0,0,41,11.65a14.48,14.48,0,0,0-.51,5.3,14.66,14.66,0,0,0,1.33,5.21,2.54,2.54,0,0,0,2.43,1.46,279.29,279.29,0,0,1,44.87,2,20.74,20.74,0,0,1,11.75,5.52l16,15.08A10.38,10.38,0,0,0,121.52,48.81Z"/><path class="cls-3" d="M175,217a1.46,1.46,0,0,0-1-1.33,181.88,181.88,0,0,0-48.88-6.41,182.07,182.07,0,0,0-48.89,6.41,1.48,1.48,0,0,0-1,1.33,8.29,8.29,0,0,0,.43,3A8.41,8.41,0,0,0,77,222.72a1.43,1.43,0,0,0,1,.53v0h94a1.44,1.44,0,0,0,1.2-.54,8.39,8.39,0,0,0,1.44-2.74A8.24,8.24,0,0,0,175,217Z"/><circle class="cls-2" cx="122.99" cy="35.55" r="5.92"/><path class="cls-2" d="M49.48,144.56a28.68,28.68,0,0,0,28.63-26.83,1.75,1.75,0,0,0-1.74-1.86H22.59a1.76,1.76,0,0,0-1.74,1.86A28.69,28.69,0,0,0,49.48,144.56Z"/><path class="cls-2" d="M197.23,177.71a28.69,28.69,0,0,0,28.63-26.83,1.74,1.74,0,0,0-1.74-1.86H170.34a1.74,1.74,0,0,0-1.74,1.86A28.69,28.69,0,0,0,197.23,177.71Z"/><circle class="cls-4" cx="199.27" cy="52.48" r="2.82"/><polyline class="cls-5" points="46.7 32.83 51.07 16.42 57.84 47.77"/><line class="cls-5" x1="24.21" y1="117.42" x2="26.25" y2="109.76"/><line class="cls-5" x1="218.05" y1="140.84" x2="220.78" y2="153.48"/><polyline class="cls-5" points="191.07 82.2 198.97 52.48 205.14 81.02"/><line class="cls-5" x1="172.12" y1="153.48" x2="178.09" y2="131.01"/><path class="cls-6" d="M25.06,120s5.09,17.71,20.37,20.83"/><path class="cls-5" d="M173.38,153.48s5.09,17.71,20.37,20.83"/><path class="cls-7" d="M29.25,49.66H60.9a0,0,0,0,1,0,0v66.21a0,0,0,0,1,0,0H28.38a0,0,0,0,1,0,0V50.53A.87.87,0,0,1,29.25,49.66Z"/><path class="cls-8" d="M60.9,49.66l3.9,5.9a4.06,4.06,0,0,1,.68,2.27v58H60.9Z"/><path class="cls-8" d="M46.39,38.4V36.29a.87.87,0,0,0-.87-.87H32.19a.87.87,0,0,0-.87.87V46.65a.87.87,0,0,0,.87.87H50.57a.87.87,0,0,0,.87-.87V40.13a.87.87,0,0,0-.87-.87H47.26A.86.86,0,0,1,46.39,38.4Z"/><path class="cls-9" d="M34.76,44.18s3.77-4.49,1.13-6.89-1.85,8,3,7.93,2.41-4.89.88-4.89-1.28,6.34,3.93,4.25,5.74-.08,5.74-.08"/><path class="cls-10" d="M25.06,120s5.09,17.71,20.37,20.83"/><line class="cls-5" x1="67.1" y1="96.31" x2="71.51" y2="116.33"/><rect class="cls-11" x="34.4" y="47.52" width="2.14" height="2.14"/><rect class="cls-11" x="46.11" y="47.52" width="2.14" height="2.14"/><rect class="cls-8" x="37.89" y="113.85" width="14.89" height="2.02"/><g class="cls-12"><rect class="cls-13" x="29.78" y="107.06" width="29.56" height="2.7"/><rect class="cls-13" x="29.86" y="102.21" width="29.56" height="2.7"/><rect class="cls-13" x="29.86" y="97.35" width="29.56" height="2.7"/><rect class="cls-13" x="29.94" y="92.5" width="29.56" height="2.7"/><rect class="cls-13" x="29.86" y="87.68" width="29.56" height="2.7"/><rect class="cls-13" x="29.94" y="82.83" width="29.56" height="2.7"/><rect class="cls-13" x="29.94" y="77.98" width="29.56" height="2.7"/><rect class="cls-13" x="30.02" y="73.13" width="29.56" height="2.7"/><rect class="cls-13" x="29.94" y="68.19" width="29.56" height="2.7"/><rect class="cls-13" x="30.02" y="63.34" width="29.56" height="2.7"/><rect class="cls-13" x="30.02" y="58.49" width="29.56" height="2.7"/><rect class="cls-13" x="30.1" y="53.63" width="29.56" height="2.7"/></g><path class="cls-7" d="M209.22,103.1V92.48a.83.83,0,0,0-.82-.83H185.24V149h31.4V104.75a.82.82,0,0,0-.82-.82H210A.83.83,0,0,1,209.22,103.1Z"/><path class="cls-13" d="M185.24,91.65l-5.75,5.76a.83.83,0,0,0-.24.58v51h6Z"/><rect class="cls-14" x="192.95" y="146.59" width="17.84" height="2.43"/><rect class="cls-14" x="186.67" y="138.89" width="28.68" height="2.71"/><rect class="cls-14" x="186.6" y="132.89" width="28.68" height="2.71"/><rect class="cls-14" x="186.71" y="126.9" width="28.68" height="2.71"/><rect class="cls-14" x="186.64" y="120.91" width="28.68" height="2.71"/><rect class="cls-14" x="186.71" y="114.91" width="28.68" height="2.71"/><rect class="cls-14" x="186.64" y="108.92" width="28.68" height="2.71"/><rect class="cls-14" x="187.06" y="100.35" width="20" height="2.71"/><rect class="cls-14" x="187.01" y="94.35" width="20" height="2.71"/><rect class="cls-13" x="186.71" y="84.18" width="19.75" height="5.61"/><rect class="cls-11" x="190.37" y="89.05" width="1.56" height="2.6"/><rect class="cls-11" x="201.87" y="89.42" width="1.46" height="2.23"/><polyline class="cls-9" points="188.63 86.99 191.93 86.99 193.38 85.54 195.61 87.77 196.49 86.89 204.43 86.89"/><path class="cls-7" d="M103.14,177.71H20.31a115.74,115.74,0,0,1-9.39-25.8,35.58,35.58,0,0,1,7.17-.37c14.6.69,26.67,12.76,26.67,12.76s10.7-7.21,22.08-2.91a70.85,70.85,0,0,1,18.63,10.33H91.6a17.6,17.6,0,0,1,8.55,2.22l3.46,1.95A1,1,0,0,1,103.14,177.71Z"/><path class="cls-15" d="M242.19,126.9H223.91a.83.83,0,0,1-.75-1.19,31,31,0,0,1,7.2-9.38,22.2,22.2,0,0,1,11.57-4.66"/><path class="cls-16" d="M118.28,48s3.44,2.78,9.2,1.06"/><path class="cls-7" d="M96.8,12.7C135.89,18,174.73,29.35,208.92,49.29l-6.55-3.47c-1.81-1-4.7-2.41-6.63-3.3-31.17-14.88-64.9-24.3-98.94-29.82Z"/><path class="cls-10" d="M182.5,169a27.67,27.67,0,0,0,29.13.69"/></svg>